<svg width="25" height="24" viewBox="0 0 25 24" fill="none" xmlns="http://www.w3.org/2000/svg">
<path d="M21.875 11.5C21.8786 12.8199 21.5574 14.1219 20.9375 15.3C20.2025 16.7118 19.0727 17.8992 17.6744 18.7293C16.2762 19.5594 14.6648 19.9994 13.0208 20C11.646 20.0035 10.2897 19.6951 9.0625 19.1L3.125 21L5.10417 15.3C4.4843 14.1219 4.16308 12.8199 4.16667 11.5C4.1673 9.92179 4.62564 8.37488 5.49033 7.03258C6.35503 5.69028 7.59193 4.6056 9.0625 3.90003C10.2897 3.30496 11.646 2.99659 13.0208 3.00003H13.5417C15.7129 3.11502 17.7636 3.99479 19.3012 5.47089C20.8388 6.94699 21.7552 8.91568 21.875 11V11.5Z" stroke="#272640" stroke-width="2" stroke-linecap="round" stroke-linejoin="round"/>
</svg>
